<mxfile host="app.diagrams.net" modified="2023-06-28T05:47:43.603Z" agent="Mozilla/5.0 (Windows NT 10.0; Win64; x64) AppleWebKit/537.36 (KHTML, like Gecko) Chrome/114.0.0.0 Safari/537.36 Edg/114.0.1788.0" etag="FGbv_bc2xmVmoXP5SNcc" version="21.5.1" type="github">
  <diagram name="第 1 页" id="-PSX32AiCSOiNMOi42WS">
    <mxGraphModel dx="474" dy="673" grid="1" gridSize="10" guides="1" tooltips="1" connect="1" arrows="1" fold="1" page="1" pageScale="1" pageWidth="827" pageHeight="1169" math="0" shadow="0">
      <root>
        <mxCell id="0" />
        <mxCell id="1" parent="0" />
        <mxCell id="Lxt_5thK3wc9bvCwiTrZ-2" value="" style="edgeStyle=none;curved=1;rounded=0;orthogonalLoop=1;jettySize=auto;html=1;fontSize=12;startSize=8;endSize=8;" edge="1" parent="1" source="pyUifsaT4nT7pQ2ECptu-1" target="Lxt_5thK3wc9bvCwiTrZ-1">
          <mxGeometry relative="1" as="geometry" />
        </mxCell>
        <mxCell id="pyUifsaT4nT7pQ2ECptu-1" value="委托" style="rounded=0;whiteSpace=wrap;html=1;" parent="1" vertex="1">
          <mxGeometry x="350" y="130" width="120" height="60" as="geometry" />
        </mxCell>
        <mxCell id="Lxt_5thK3wc9bvCwiTrZ-4" value="" style="edgeStyle=none;curved=1;rounded=0;orthogonalLoop=1;jettySize=auto;html=1;fontSize=12;startSize=8;endSize=8;" edge="1" parent="1" source="Lxt_5thK3wc9bvCwiTrZ-1" target="Lxt_5thK3wc9bvCwiTrZ-3">
          <mxGeometry relative="1" as="geometry" />
        </mxCell>
        <mxCell id="Lxt_5thK3wc9bvCwiTrZ-1" value="信息收集、分析" style="rounded=0;whiteSpace=wrap;html=1;fontSize=16;" vertex="1" parent="1">
          <mxGeometry x="350" y="310" width="120" height="60" as="geometry" />
        </mxCell>
        <mxCell id="Lxt_5thK3wc9bvCwiTrZ-3" value="存在远程控制弱点" style="rhombus;whiteSpace=wrap;html=1;fontSize=16;rounded=0;" vertex="1" parent="1">
          <mxGeometry x="370" y="480" width="180" height="80" as="geometry" />
        </mxCell>
      </root>
    </mxGraphModel>
  </diagram>
</mxfile>
